HIERARCHY
ROOT Hips
{
	OFFSET 0.000000 0.000000 0.000000
	CHANNELS 6 Xposition Yposition Zposition Xrotation Yrotation Zrotation
	JOINT LeftUpLeg_virtual
	{
		OFFSET 0.000000 0.000000 0.000000
		CHANNELS 3 Xrotation Yrotation Zrotation
		JOINT LeftUpLeg
		{
			OFFSET 15.427100 -6.655098 0.678600
			CHANNELS 3 Xrotation Yrotation Zrotation
			JOINT LeftLeg
			{
				OFFSET 4.081073 -39.591068 13.024000
				CHANNELS 3 Xrotation Yrotation Zrotation
				JOINT LeftFoot
				{
					OFFSET -4.081074 -37.707932 -15.979700
					CHANNELS 3 Xrotation Yrotation Zrotation
					JOINT LeftToeBase
					{
						OFFSET 5.346399 -15.068900 20.645000
						CHANNELS 3 Xrotation Yrotation Zrotation
						JOINT LeftToe_End
						{
							OFFSET 2.754700 0.931300 11.300900
							CHANNELS 3 Xrotation Yrotation Zrotation
							End Site
							{
								OFFSET 0 0 0
							}
						}
					}
				}
			}
		}
	}
	JOINT RightUpLeg_virtual
	{
		OFFSET 0.000000 0.000000 0.000000
		CHANNELS 3 Xrotation Yrotation Zrotation
		JOINT RightUpLeg
		{
			OFFSET -15.569500 -6.655098 0.678600
			CHANNELS 3 Xrotation Yrotation Zrotation
			JOINT RightLeg
			{
				OFFSET -4.081825 -39.591045 13.023800
				CHANNELS 3 Xrotation Yrotation Zrotation
				JOINT RightFoot
				{
					OFFSET 4.081824 -37.707954 -15.979600
					CHANNELS 3 Xrotation Yrotation Zrotation
					JOINT RightToeBase
					{
						OFFSET -5.346400 -15.068900 20.645000
						CHANNELS 3 Xrotation Yrotation Zrotation
						JOINT RightToe_End
						{
							OFFSET -2.754700 0.931300 11.300900
							CHANNELS 3 Xrotation Yrotation Zrotation
							End Site
							{
								OFFSET 0 0 0
							}
						}
					}
				}
			}
		}
	}
	JOINT Spine_virtual
	{
		OFFSET 0.000000 0.000000 0.000000
		CHANNELS 3 Xrotation Yrotation Zrotation
		JOINT Spine
		{
			OFFSET -0.279200 12.230698 -2.892100
			CHANNELS 3 Xrotation Yrotation Zrotation
			JOINT Spine1
			{
				OFFSET -0.232667 10.192268 -1.242267
				CHANNELS 3 Xrotation Yrotation Zrotation
				JOINT Spine1_split
				{
					OFFSET -0.232667 10.192268 -1.242267
					CHANNELS 3 Xrotation Yrotation Zrotation
					JOINT Spine2
					{
						OFFSET -0.232667 10.192268 -1.242267
						CHANNELS 3 Xrotation Yrotation Zrotation
						JOINT Neck_virtual
						{
							OFFSET 0.000000 0.000000 0.000000
							CHANNELS 3 Xrotation Yrotation Zrotation
							JOINT Neck
							{
								OFFSET -0.418800 17.814194 8.416900
								CHANNELS 3 Xrotation Yrotation Zrotation
								JOINT Head
								{
									OFFSET 0.000000 7.031097 3.806800
									CHANNELS 3 Xrotation Yrotation Zrotation
									JOINT HeadTop_End
									{
										OFFSET 0.000000 24.646606 12.978600
										CHANNELS 3 Xrotation Yrotation Zrotation
										End Site
										{
											OFFSET 0 0 0
										}
									}
								}
							}
						}
						JOINT LeftShoulder_virtual
						{
							OFFSET 0.000000 0.000000 0.000000
							CHANNELS 3 Xrotation Yrotation Zrotation
							JOINT LeftShoulder
							{
								OFFSET 8.476499 7.247704 -3.868750
								CHANNELS 3 Xrotation Yrotation Zrotation
								JOINT LeftShoulder_split
								{
									OFFSET 8.476499 7.247704 -3.868750
									CHANNELS 3 Xrotation Yrotation Zrotation
									JOINT LeftArm
									{
										OFFSET 9.308998 -2.777710 0.208600
										CHANNELS 3 Xrotation Yrotation Zrotation
										JOINT LeftForeArm
										{
											OFFSET 29.972298 0.000000 0.000000
											CHANNELS 3 Xrotation Yrotation Zrotation
											JOINT LeftHand
											{
												OFFSET 26.026505 0.000000 0.000000
												CHANNELS 3 Xrotation Yrotation Zrotation
												End Site
												{
													OFFSET 0 0 0
												}
											}
										}
									}
								}
							}
						}
						JOINT RightShoulder_virtual
						{
							OFFSET 0.000000 0.000000 0.000000
							CHANNELS 3 Xrotation Yrotation Zrotation
							JOINT RightShoulder
							{
								OFFSET -7.570500 7.247704 -3.868750
								CHANNELS 3 Xrotation Yrotation Zrotation
								JOINT RightShoulder_split
								{
									OFFSET -7.570500 7.247704 -3.868750
									CHANNELS 3 Xrotation Yrotation Zrotation
									JOINT RightArm
									{
										OFFSET -9.308998 -2.777710 0.208500
										CHANNELS 3 Xrotation Yrotation Zrotation
										JOINT RightForeArm
										{
											OFFSET -29.972300 0.000000 0.000000
											CHANNELS 3 Xrotation Yrotation Zrotation
											JOINT RightHand
											{
												OFFSET -26.026505 0.000000 0.000000
												CHANNELS 3 Xrotation Yrotation Zrotation
												End Site
												{
													OFFSET 0 0 0
												}
											}
										}
									}
								}
							}
						}
					}
				}
			}
		}
	}
}
MOTION
Frames: 4
Frame Time: 0.03333333
7.794384 96.331406 -1.309296 0.000000 0.000000 0.000000 0.024737 -13.942644 -2.918907 -11.401795 21.801411 9.802945 20.272312 8.978486 4.942231 -8.974786 8.508583 -9.317385 0.000002 -0.000006 0.000002 0.000000 0.000000 0.000000 0.024737 -13.942644 -2.918907 -14.429857 -18.645692 -7.309895 12.661273 9.313031 -3.233738 -0.057552 8.246787 8.775932 -0.000001 0.000002 0.000002 0.000000 0.000000 0.000000 0.024737 -13.942644 -2.918907 1.275154 -1.109481 -1.243815 0.247989 -0.899456 -0.732542 0.000000 0.000000 0.000000 0.000000 0.000000 0.000000 0.243785 -0.917157 -0.703879 0.749591 2.295818 1.468096 -1.250656 13.693914 -1.535067 0.000000 0.000000 0.000000 0.243785 -0.917157 -0.703879 -1.488744 9.670789 -3.001459 0.000000 0.000000 0.000000 40.860490 -60.704836 -25.987200 0.000005 -22.817347 0.000001 0.000000 0.000000 0.000000 0.243785 -0.917157 -0.703879 4.389557 5.095590 -14.946397 0.000000 0.000000 0.000000 -41.397855 -19.780020 36.650833 -179.999909 72.302299 179.999923 0.000000 0.000000 0.000000 
7.433468 96.321327 -1.304558 0.000000 0.000000 0.000000 0.048662 -13.572430 -2.878301 -11.503906 21.635263 10.045938 20.241088 8.949002 4.888832 -8.798371 8.331665 -9.508463 0.000002 -0.000009 0.000002 0.000000 0.000000 0.000000 0.048662 -13.572430 -2.878301 -14.251449 -18.441133 -7.217628 12.865109 9.324169 -2.972668 -0.325106 7.622110 8.441232 -0.000003 -0.000008 -0.000000 0.000000 0.000000 0.000000 0.048662 -13.572430 -2.878301 1.281817 -1.088209 -1.130478 0.241808 -0.884487 -0.647217 0.000000 0.000000 0.000000 0.000000 0.000000 0.000000 0.237302 -0.899711 -0.618708 0.663438 2.273469 1.368833 -1.324471 13.444069 -1.498670 0.000000 0.000000 0.000000 0.237302 -0.899711 -0.618708 -1.475811 9.676772 -3.126219 0.000000 0.000000 0.000000 40.863471 -61.027631 -25.944134 0.000003 -22.683955 0.000014 0.000000 0.000000 0.000000 0.237302 -0.899711 -0.618708 4.393939 5.191678 -14.254577 0.000000 0.000000 0.000000 -38.714796 -17.278386 37.271881 -179.999964 73.320387 179.999964 0.000000 0.000000 0.000000 
7.059458 96.323921 -1.303093 0.000000 0.000000 0.000000 0.033344 -13.207626 -2.869102 -11.558836 21.426829 10.323956 20.183829 8.921525 4.823969 -8.597815 8.152494 -9.714846 0.000002 -0.000009 0.000002 0.000000 0.000000 0.000000 0.033344 -13.207626 -2.869102 -14.003308 -18.260772 -7.037488 13.034397 9.331800 -2.795961 -0.583590 7.014492 8.131440 -0.000002 0.000005 0.000002 0.000000 0.000000 0.000000 0.033344 -13.207626 -2.869102 1.295922 -1.085069 -1.017562 0.239821 -0.882716 -0.566063 0.000000 0.000000 0.000000 0.000000 0.000000 0.000000 0.235036 -0.895545 -0.537205 0.553540 2.244818 1.305165 -1.371441 13.207171 -1.460609 0.000000 0.000000 0.000000 0.235036 -0.895545 -0.537205 -1.467160 9.681593 -3.211858 0.000000 0.000000 0.000000 40.861378 -61.366702 -25.900137 0.000002 -22.538048 0.000007 0.000000 0.000000 0.000000 0.235036 -0.895545 -0.537205 4.385645 5.270032 -13.433538 0.000000 0.000000 0.000000 -35.973998 -14.618131 37.730399 -179.999923 74.386299 179.999909 0.000000 0.000000 0.000000 
6.674860 96.341698 -1.304691 0.000000 0.000000 0.000000 -0.017280 -12.823507 -2.863607 -11.551096 21.155975 10.564471 20.075038 8.895104 4.803254 -8.358452 7.985464 -9.952097 0.000002 -0.000012 0.000002 0.000000 0.000000 0.000000 -0.017280 -12.823507 -2.863607 -13.689033 -18.078478 -6.846136 13.156179 9.338991 -2.611493 -0.827958 6.391530 7.811395 -0.000000 0.000000 0.000002 0.000000 0.000000 0.000000 -0.017280 -12.823507 -2.863607 1.314540 -1.099276 -0.918820 0.240734 -0.893317 -0.492671 0.000000 0.000000 0.000000 0.000000 0.000000 0.000000 0.235762 -0.903967 -0.463006 0.414344 2.204619 1.287391 -1.405870 12.968852 -1.411019 0.000000 0.000000 0.000000 0.235762 -0.903967 -0.463006 -1.463774 9.674974 -3.227007 0.000000 0.000000 0.000000 40.806385 -61.723388 -25.910227 -0.000017 -22.361307 -0.000001 0.000000 0.000000 0.000000 0.235762 -0.903967 -0.463006 4.361892 5.326276 -12.458677 0.000000 0.000000 0.000000 -33.127466 -11.766433 37.966771 -179.999978 75.519667 179.999991 0.000000 0.000000 0.000000 
